<?xml version="1.0" encoding="UTF-8" standalone="no"?>
<!-- Created with Inkscape (http://www.inkscape.org/) -->

<svg
   xmlns:dc="http://purl.org/dc/elements/1.1/"
   xmlns:cc="http://creativecommons.org/ns#"
   xmlns:rdf="http://www.w3.org/1999/02/22-rdf-syntax-ns#"
   xmlns:svg="http://www.w3.org/2000/svg"
   xmlns="http://www.w3.org/2000/svg"
   xmlns:sodipodi="http://sodipodi.sourceforge.net/DTD/sodipodi-0.dtd"
   xmlns:inkscape="http://www.inkscape.org/namespaces/inkscape"
   width="22.845079mm"
   height="26.458332mm"
   viewBox="0 0 22.845079 26.458332"
   version="1.1"
   id="svg8"
   inkscape:version="0.92.4 (5da689c313, 2019-01-14)"
   sodipodi:docname="IconTestautomatiseerder.svg"
   inkscape:export-filename="C:\Users\Sander\Pictures\logotestautomatiseerder.png"
   inkscape:export-xdpi="300"
   inkscape:export-ydpi="300">
  <defs
     id="defs2">
    <style
       id="style4644"
       type="text/css">
   
    .fil0 {fill:#000000;fill-rule:nonzero}
   
  </style>
  </defs>
  <sodipodi:namedview
     id="base"
     pagecolor="#ffffff"
     bordercolor="#666666"
     borderopacity="1.0"
     inkscape:pageopacity="0.0"
     inkscape:pageshadow="2"
     inkscape:zoom="3.959798"
     inkscape:cx="9.3824732"
     inkscape:cy="34.216007"
     inkscape:document-units="mm"
     inkscape:current-layer="layer3"
     showgrid="false"
     inkscape:window-width="1920"
     inkscape:window-height="1000"
     inkscape:window-x="-11"
     inkscape:window-y="-11"
     inkscape:window-maximized="1"
     fit-margin-top="0"
     fit-margin-left="0"
     fit-margin-right="0"
     fit-margin-bottom="0" />
  <metadata
     id="metadata5">
    <rdf:RDF>
      <cc:Work
         rdf:about="">
        <dc:format>image/svg+xml</dc:format>
        <dc:type
           rdf:resource="http://purl.org/dc/dcmitype/StillImage" />
        <dc:title></dc:title>
      </cc:Work>
    </rdf:RDF>
  </metadata>
  <g
     inkscape:label="Layer 1"
     inkscape:groupmode="layer"
     id="layer1"
     transform="translate(-31.75947,-109.82351)">
    <g
       style="clip-rule:evenodd;fill:#4a2f7c;fill-opacity:1;fill-rule:evenodd;image-rendering:optimizeQuality;shape-rendering:geometricPrecision;text-rendering:geometricPrecision"
       id="g4661"
       transform="matrix(0.11655653,0,0,0.11655653,31.75947,109.82351)">
      <g
         id="g4650"
         style="fill:#4a2f7c;fill-opacity:1">
        <polygon
           id="polygon4648"
           points="196,170 196,57 98,0 0,57 0,170 98,227 "
           class="fil0"
           style="fill:#4a2f7c;fill-opacity:1;fill-rule:nonzero" />
      </g>
    </g>
  </g>
  <g
     inkscape:groupmode="layer"
     id="layer2"
     inkscape:label="Layer 2"
     transform="translate(-31.75947,-109.82351)">
    <g
       style="fill:#ccb9ee;fill-opacity:1"
       id="g4610"
       transform="matrix(0.21201002,0,0,0.21201002,32.64266,111.84303)">
      <g
         id="g4595"
         style="fill:#ccb9ee;fill-opacity:1">
        <circle
           id="circle4587"
           r="4"
           cy="35"
           cx="30"
           style="fill:#ccb9ee;fill-opacity:1" />
        <path
           id="path4589"
           d="M 70,21 H 30 c -7.73,0 -14,6.27 -14,14 0,7.73 6.27,14 14,14 H 70 C 77.73,49 84,42.73 84,35 84,27.27 77.73,21 70,21 Z M 30,45 c -5.52,0 -10,-4.48 -10,-10 0,-5.52 4.48,-10 10,-10 5.52,0 10,4.48 10,10 0,5.52 -4.48,10 -10,10 z m 40,0 c -5.52,0 -10,-4.48 -10,-10 0,-5.52 4.48,-10 10,-10 5.52,0 10,4.48 10,10 0,5.52 -4.48,10 -10,10 z"
           inkscape:connector-curvature="0"
           style="fill:#ccb9ee;fill-opacity:1" />
        <circle
           id="circle4591"
           r="4"
           cy="35"
           cx="70"
           style="fill:#ccb9ee;fill-opacity:1" />
        <path
           id="path4593"
           d="M 68,66 H 32 c -4.96,0 -9,4.04 -9,9 0,4.96 4.04,9 9,9 h 36 c 4.96,0 9,-4.04 9,-9 0,-4.96 -4.04,-9 -9,-9 z M 29,80.19 C 27.48,79.31 26.39,77.79 26.09,76 H 29 Z M 29,74 h -2.91 c 0.3,-1.79 1.39,-3.31 2.91,-4.19 z m 8,7 h -5 c -0.34,0 -0.67,-0.04 -1,-0.09 V 76 h 6 z m 0,-7 H 31 V 69.09 C 31.33,69.04 31.66,69 32,69 h 5 z m 8,7 h -6 v -5 h 6 z m 0,-7 h -6 v -5 h 6 z m 8,7 h -6 v -5 h 6 z m 0,-7 h -6 v -5 h 6 z m 8,7 h -6 v -5 h 6 z m 0,-7 h -6 v -5 h 6 z m 8,6.91 C 68.67,80.96 68.34,81 68,81 h -5 v -5 h 6 z M 69,74 h -6 v -5 h 5 c 0.34,0 0.67,0.04 1,0.09 z m 2,6.19 V 76 h 2.91 c -0.3,1.79 -1.39,3.31 -2.91,4.19 z M 71,74 v -4.19 c 1.52,0.88 2.61,2.4 2.91,4.19 z"
           inkscape:connector-curvature="0"
           style="fill:#ccb9ee;fill-opacity:1" />
      </g>
    </g>
  </g>
  <g
     inkscape:groupmode="layer"
     id="layer3"
     inkscape:label="Layer 3"
     transform="translate(-31.75947,-22.82351)" />
</svg>
